<svg aria-hidden="true" style="position: absolute; width: 0; height: 0; overflow: hidden;" version="1.1" xmlns="http://www.w3.org/2000/svg" xmlns:xlink="http://www.w3.org/1999/xlink">
<defs>
<symbol id="icon-github" viewBox="0 0 32 32">
<title>github</title>
<path d="M29.9 8.4c-1.5-2.5-3.4-4.4-5.9-5.9-2.5-1.4-5.1-2.1-8-2.1s-5.6 0.7-8 2.1c-2.5 1.5-4.4 3.4-5.9 5.9-1.4 2.5-2.1 5.1-2.1 8 0 3.5 1 6.6 3.1 9.4 2 2.8 4.7 4.7 7.9 5.8 0.4 0.1 0.7 0 0.8-0.1 0.2-0.2 0.3-0.4 0.3-0.6v-3l-0.5 0.1h-1.2c-0.5 0-0.9-0.1-1.4-0.1-0.5-0.1-1-0.3-1.4-0.6s-0.7-0.8-0.9-1.3l-0.2-0.5c-0.1-0.3-0.4-0.7-0.7-1.1s-0.6-0.7-0.9-0.8l-0.4-0.4c-0.1-0.1-0.1-0.2-0.2-0.3 0-0.1 0-0.2 0.1-0.2 0.1-0.1 0.3-0.1 0.6-0.1l0.4 0.1c0.3 0.1 0.6 0.2 1 0.5s0.7 0.6 1 1.1c0.3 0.6 0.7 1 1.2 1.3 0.4 0.3 0.9 0.4 1.3 0.4s0.9 0 1.2-0.1l0.9-0.3c0.1-0.9 0.5-1.6 1-2.1-0.8-0.1-1.5-0.2-2.1-0.4s-1.3-0.4-2-0.8-1.2-0.8-1.7-1.4c-0.4-0.6-0.8-1.3-1.1-2.2s-0.4-1.9-0.4-3.1c0-1.7 0.5-3.1 1.6-4.3-0.4-1.3-0.3-2.7 0.3-4.3 0.4-0.1 1 0 1.8 0.3s1.4 0.6 1.7 0.8c0.4 0.2 0.7 0.4 0.9 0.6 1.3-0.4 2.6-0.5 4-0.5s2.7 0.2 4 0.5l0.8-0.5c0.5-0.3 1.2-0.6 1.9-0.9s1.3-0.4 1.7-0.3c0.6 1.6 0.7 3 0.2 4.2 1.1 1.2 1.6 2.6 1.6 4.3 0 1.2-0.1 2.2-0.4 3.1s-0.7 1.6-1.1 2.2c-0.5 0.5-1 1-1.7 1.4s-1.3 0.6-2 0.8c-0.6 0.2-1.3 0.3-2.1 0.4 0.7 0.6 1.1 1.6 1.1 3v4.4c0 0.2 0.1 0.5 0.3 0.6 0.2 0.2 0.4 0.2 0.8 0.1 3.2-1.1 5.9-3 7.9-5.8s3.1-5.9 3.1-9.4c-0.1-2.8-0.8-5.5-2.2-7.9z"></path>
</symbol>
<symbol id="icon-arrow-left" viewBox="0 0 32 32">
<title>arrow-left</title>
<path d="M1.8 16c0 0.2 0 0.2 0 0.4s0.2 0.4 0.2 0.4l7.2 7.2c0.6 0.6 1.2 0.6 1.6 0s0.6-1.2 0-1.6l-5-5.2h23.2c0.4 0 0.6-0.2 0.8-0.4s0.4-0.6 0.4-0.8c0-0.4-0.2-0.6-0.4-0.8s-0.6-0.4-0.8-0.4h-23.2l5-5.2c0.6-0.6 0.6-1.2 0-1.6-0.4-0.6-1-0.6-1.6 0l-7.2 7.2c0 0-0.2 0.2-0.2 0.4 0 0 0 0.2 0 0.4z"></path>
</symbol>
<symbol id="icon-arrow-right" viewBox="0 0 32 32">
<title>arrow-right</title>
<path d="M30.2 16c0-0.2 0-0.4 0-0.4 0-0.2-0.2-0.2-0.2-0.4l-7.2-7.2c-0.6-0.6-1.2-0.6-1.6 0s-0.6 1.2 0 1.6l5 5.2h-23.2c-0.4 0-0.8 0.2-1 0.4s-0.2 0.4-0.2 0.8c0 0.4 0.2 0.6 0.4 0.8s0.6 0.4 0.8 0.4h23.2l-5 5.2c-0.6 0.6-0.6 1.2 0 1.6 0.6 0.6 1.2 0.6 1.6 0l7.2-7.2c0.2 0 0.2-0.2 0.2-0.4 0 0 0-0.2 0-0.4z"></path>
</symbol>
<symbol id="icon-arrow-up" viewBox="0 0 32 32">
<title>arrow-up</title>
<path d="M16 1.8c-0.2 0-0.4 0-0.4 0-0.2 0-0.4 0.2-0.4 0.2l-7.2 7.2c-0.6 0.6-0.6 1.2 0 1.8s1.2 0.6 1.6 0l5.2-5v23.2c0 0.4 0.2 0.6 0.4 0.8s0.6 0.4 0.8 0.4c0.4 0 0.6-0.2 0.8-0.4s0.4-0.6 0.4-0.8v-23.4l5.2 5c0.6 0.6 1.2 0.6 1.6 0 0.6-0.6 0.6-1.2 0-1.6l-7.2-7.2c0-0.2-0.2-0.2-0.4-0.2 0 0-0.2 0-0.4 0z"></path>
</symbol>
<symbol id="icon-arrow-down" viewBox="0 0 32 32">
<title>arrow-down</title>
<path d="M16 30.2c0.2 0 0.2 0 0.4 0s0.2-0.2 0.4-0.2l7.2-7.2c0.6-0.6 0.6-1.2 0-1.6s-1.2-0.6-1.6 0l-5.2 5v-23.2c0-0.4-0.2-0.6-0.4-0.8-0.2-0.4-0.4-0.4-0.8-0.4s-0.6 0-0.8 0.2c-0.2 0.2-0.4 0.6-0.4 1v23.2l-5.2-5c-0.6-0.6-1.2-0.6-1.6 0s-0.6 1.2 0 1.6l7.2 7.2c0 0.2 0.2 0.2 0.4 0.2 0 0 0.2 0 0.4 0z"></path>
</symbol>
</defs>
</svg>
