<?xml version="1.0" encoding="UTF-8"?>
<svg width="105px" height="18px" viewBox="0 0 105 18" version="1.1" xmlns="http://www.w3.org/2000/svg" xmlns:xlink="http://www.w3.org/1999/xlink">
    <!-- Generator: Sketch 64 (93537) - https://sketch.com -->
    <title>mandhari_logo_full-outline</title>
    <desc>Created with Sketch.</desc>
    <g id="Page-1" stroke="none" stroke-width="1" fill="none" fill-rule="evenodd">
        <g id="Artboard" transform="translate(-9.000000, -89.000000)" fill-rule="nonzero" stroke="#000000" stroke-width="0.1">
            <g id="mandhari_logo_full-outline" transform="translate(10.000000, 89.000000)">
                <path d="M25.904908,4.52 C29.584908,4.52 31.424908,5.792 31.424908,8.336 L31.424908,8.336 L31.424908,14.912 L31.428408,15.1661667 C31.4540747,16.0767222 31.620908,16.752 31.928908,17.192 L31.928908,17.192 L28.160908,17.192 L28.08401,17.0284082 C27.9409896,16.6894694 27.8626223,16.28 27.848908,15.8 C27.016908,16.92 25.696908,17.48 23.888908,17.48 C22.528908,17.48 21.436908,17.144 20.612908,16.472 C19.788908,15.8 19.376908,14.872 19.376908,13.688 C19.376908,11.384 20.992908,10.096 24.224908,9.824 L24.224908,9.824 L26.168908,9.656 L26.3636267,9.63153125 C27.3058142,9.49184375 27.776908,9.092 27.776908,8.432 C27.776908,7.6 27.144908,7.184 25.880908,7.184 C25.112908,7.184 24.572908,7.3 24.260908,7.532 C23.948908,7.764 23.760908,8.192 23.696908,8.816 L23.696908,8.816 L19.976908,8.816 L19.9989095,8.58692184 C20.3089986,5.87564061 22.2776648,4.52 25.904908,4.52 Z M57.434724,0.104 L57.434724,17.192 L53.786724,17.192 L53.786724,15.584 L53.6442796,15.7888148 C52.815687,16.9162716 51.6231684,17.48 50.066724,17.48 C48.402724,17.48 47.090724,16.896 46.130724,15.728 C45.154724,14.56 44.666724,12.984 44.666724,11 C44.666724,9.016 45.154724,7.44 46.130724,6.272 C47.090724,5.104 48.402724,4.52 50.066724,4.52 C51.634724,4.52 52.842724,5.112 53.690724,6.296 L53.690724,6.296 L53.690724,0.104 L57.434724,0.104 Z M77.25254,4.52 C80.93254,4.52 82.77254,5.792 82.77254,8.336 L82.77254,8.336 L82.77254,14.912 L82.77604,15.1661667 C82.8017067,16.0767222 82.96854,16.752 83.27654,17.192 L83.27654,17.192 L79.50854,17.192 L79.431642,17.0284082 C79.2886216,16.6894694 79.2102543,16.28 79.19654,15.8 C78.36454,16.92 77.04454,17.48 75.23654,17.48 C73.87654,17.48 72.78454,17.144 71.96054,16.472 C71.13654,15.8 70.72454,14.872 70.72454,13.688 C70.72454,11.384 72.34054,10.096 75.57254,9.824 L75.57254,9.824 L77.51654,9.656 L77.7112587,9.63153125 C78.6534462,9.49184375 79.12454,9.092 79.12454,8.432 C79.12454,7.6 78.49254,7.184 77.22854,7.184 C76.46054,7.184 75.92054,7.3 75.60854,7.532 C75.29654,7.764 75.10854,8.192 75.04454,8.816 L75.04454,8.816 L71.32454,8.816 L71.3465415,8.58692184 C71.6566306,5.87564061 73.6252968,4.52 77.25254,4.52 Z M6.072,0.104 L8.328,7.448 L8.39971598,7.69467456 C8.6928284,8.70807101 9.06092308,10.0418462 9.504,11.696 C9.888,10.176 10.272,8.736 10.656,7.376 L10.656,7.376 L12.888,0.104 L18.96,0.104 L18.96,17.192 L15.096,17.192 L15.096,12.176 L15.0967347,11.5003265 C15.103102,8.60106122 15.1508571,6.07428571 15.24,3.92 C14.936,5.088 14.552,6.384 14.088,7.808 L14.088,7.808 L11.136,17.192 L7.824,17.192 L4.872,7.808 L4.738875,7.374875 C4.425625,6.347625 4.094,5.204 3.744,3.944 C3.824,6.632 3.864,9.376 3.864,12.176 L3.864,12.176 L3.864,17.192 L-7.81952281e-12,17.192 L-7.81952281e-12,0.104 L6.072,0.104 Z M39.833816,4.52 C41.145816,4.52 42.189816,4.916 42.965816,5.708 C43.741816,6.5 44.129816,7.624 44.129816,9.08 L44.129816,9.08 L44.129816,17.192 L40.385816,17.192 L40.385816,9.824 L40.3817003,9.63636364 C40.3240805,8.35345455 39.6614524,7.712 38.393816,7.712 C37.721816,7.712 37.161816,7.936 36.713816,8.384 C36.265816,8.832 36.041816,9.464 36.041816,10.28 L36.041816,10.28 L36.041816,17.192 L32.297816,17.192 L32.297816,4.808 L35.945816,4.808 L35.945816,6.56 L36.1089271,6.33962963 C37.050853,5.12654321 38.2924827,4.52 39.833816,4.52 Z M62.219632,0.104 L62.219632,6.44 L62.3799283,6.23259259 C63.3050641,5.0908642 64.515632,4.52 66.011632,4.52 C67.323632,4.52 68.367632,4.916 69.143632,5.708 C69.919632,6.5 70.307632,7.624 70.307632,9.08 L70.307632,9.08 L70.307632,17.192 L66.563632,17.192 L66.563632,9.824 L66.5595163,9.63636364 C66.5018965,8.35345455 65.8392684,7.712 64.571632,7.712 C63.899632,7.712 63.339632,7.936 62.891632,8.384 C62.443632,8.832 62.219632,9.464 62.219632,10.28 L62.219632,10.28 L62.219632,17.192 L58.475632,17.192 L58.475632,0.104 L62.219632,0.104 Z M90.821448,4.616 C90.885448,4.616 91.157448,4.632 91.637448,4.664 L91.637448,4.664 L91.637448,8.072 L90.677448,8.072 L90.454599,8.07599524 C88.411165,8.15057313 87.389448,9.26924138 87.389448,11.432 L87.389448,11.432 L87.389448,17.192 L83.645448,17.192 L83.645448,4.808 L87.293448,4.808 L87.293448,7.112 L87.3719811,6.89967486 C87.9728431,5.37722495 89.1226654,4.616 90.821448,4.616 Z M95.774356,4.808 L95.774356,17.192 L92.030356,17.192 L92.030356,4.808 L95.774356,4.808 Z M100.505112,12.104 C101.207226,12.104 101.800273,12.346616 102.284254,12.8318481 C102.761418,13.3170802 103,13.9077975 103,14.604 C103,15.3002025 102.761418,15.8909198 102.284254,16.3761519 C101.800273,16.861384 101.207226,17.104 100.505112,17.104 C99.8029993,17.104 99.2099523,16.861384 98.7259714,16.3761519 C98.2419905,15.8909198 98,15.3002025 98,14.604 C98,13.9077975 98.2419905,13.3170802 98.7259714,12.8318481 C99.2099523,12.346616 99.8029993,12.104 100.505112,12.104 Z M100.505112,12.4626498 C99.8984322,12.4626498 99.3940014,12.6665879 98.99182,13.0744641 C98.5828221,13.4823404 98.3783231,13.9921857 98.3783231,14.604 C98.3783231,15.2017496 98.5828221,15.7045626 98.99182,16.1124388 C99.4076346,16.5273474 99.9120654,16.7348017 100.505112,16.7348017 C101.09816,16.7348017 101.60259,16.5273474 102.018405,16.1124388 C102.420586,15.6975302 102.621677,15.1947173 102.621677,14.604 C102.621677,13.999218 102.420586,13.4893727 102.018405,13.0744641 C101.616224,12.6665879 101.111793,12.4626498 100.505112,12.4626498 Z M100.668712,13.1904979 L100.806464,13.1959187 C101.027058,13.2139879 101.202681,13.2772302 101.333333,13.3856456 C101.490116,13.515744 101.568507,13.7038594 101.568507,13.9499916 C101.568507,14.2875443 101.42195,14.5090633 101.128834,14.6145485 C101.353783,14.684872 101.476483,14.8641969 101.496933,15.1525232 L101.496933,15.1525232 L101.527607,15.5850127 L101.53911,15.6918165 C101.557004,15.7946646 101.59407,15.8856456 101.650307,15.9647595 L101.650307,15.9647595 L101.302658,15.9647595 L101.250398,15.8475537 C101.221616,15.766291 101.204953,15.6787773 101.200409,15.5850127 L101.200409,15.5850127 L101.179959,15.2263629 L101.168507,15.1314262 C101.148875,15.0132827 101.111793,14.9288945 101.05726,14.8782616 C100.989093,14.8149705 100.873211,14.7833249 100.709611,14.7833249 L100.709611,14.7833249 L99.8813906,14.7833249 L99.8813906,15.9647595 L99.5541922,15.9647595 L99.5541922,13.1904979 L100.668712,13.1904979 Z M79.12454,11.408 L79.0427622,11.485037 C78.8057252,11.6825679 78.4169844,11.8168889 77.87654,11.888 L77.87654,11.888 L76.34054,12.056 L76.1350037,12.0824083 C75.0720279,12.2436263 74.54054,12.7308235 74.54054,13.544 C74.54054,13.976 74.70054,14.32 75.02054,14.576 C75.34054,14.832 75.78854,14.96 76.36454,14.96 C77.21254,14.96 77.88454,14.74 78.38054,14.3 C78.87654,13.86 79.12454,13.2 79.12454,12.32 L79.12454,12.32 L79.12454,11.408 Z M27.776908,11.408 L27.6951302,11.485037 C27.4580932,11.6825679 27.0693524,11.8168889 26.528908,11.888 L26.528908,11.888 L24.992908,12.056 L24.7873717,12.0824083 C23.7243959,12.2436263 23.192908,12.7308235 23.192908,13.544 C23.192908,13.976 23.352908,14.32 23.672908,14.576 C23.992908,14.832 24.440908,14.96 25.016908,14.96 C25.864908,14.96 26.536908,14.74 27.032908,14.3 C27.528908,13.86 27.776908,13.2 27.776908,12.32 L27.776908,12.32 L27.776908,11.408 Z M51.098724,7.52 C50.266724,7.52 49.618724,7.828 49.154724,8.444 C48.690724,9.06 48.458724,9.944 48.458724,11.096 C48.458724,13.352 49.338724,14.48 51.098724,14.48 C52.874724,14.48 53.762724,13.32 53.762724,11 C53.762724,8.68 52.874724,7.52 51.098724,7.52 Z M100.668712,13.4964051 L99.8813906,13.4964051 L99.8813906,14.4668692 L100.689162,14.4668692 C101.043626,14.4668692 101.220859,14.3051252 101.220859,13.9816371 C101.220859,13.6581491 101.03681,13.4964051 100.668712,13.4964051 L100.668712,13.4964051 Z M95.702356,0.224 L95.702356,3.392 L92.126356,3.392 L92.126356,0.224 L95.702356,0.224 Z" id="Mask"></path>
            </g>
        </g>
    </g>
</svg>