<?xml version="1.0" encoding="UTF-8"?>
<svg width="26px" height="18px" viewBox="0 0 26 18" version="1.1" xmlns="http://www.w3.org/2000/svg" xmlns:xlink="http://www.w3.org/1999/xlink">
    <!-- Generator: Sketch 64 (93537) - https://sketch.com -->
    <title>mandhari_logo_min-white</title>
    <desc>Created with Sketch.</desc>
    <defs>
        <path d="M6.072,0.104 L8.328,7.448 L8.39971598,7.69467456 C8.6928284,8.70807101 9.06092308,10.0418462 9.504,11.696 C9.888,10.176 10.272,8.736 10.656,7.376 L10.656,7.376 L12.888,0.104 L18.96,0.104 L18.96,17.192 L15.096,17.192 L15.096,12.176 L15.0967347,11.5003265 C15.103102,8.60106122 15.1508571,6.07428571 15.24,3.92 C14.936,5.088 14.552,6.384 14.088,7.808 L14.088,7.808 L11.136,17.192 L7.824,17.192 L4.872,7.808 L4.738875,7.374875 C4.425625,6.347625 4.094,5.204 3.744,3.944 C3.824,6.632 3.864,9.376 3.864,12.176 L3.864,12.176 L3.864,17.192 L-2.78053136e-11,17.192 L-2.78053136e-11,0.104 L6.072,0.104 Z M23.5051125,12 C24.2072256,12 24.8002727,12.242616 25.2842536,12.7278481 C25.7614179,13.2130802 26,13.8037975 26,14.5 C26,15.1962025 25.7614179,15.7869198 25.2842536,16.2721519 C24.8002727,16.757384 24.2072256,17 23.5051125,17 C22.8029993,17 22.2099523,16.757384 21.7259714,16.2721519 C21.2419905,15.7869198 21,15.1962025 21,14.5 C21,13.8037975 21.2419905,13.2130802 21.7259714,12.7278481 C22.2099523,12.242616 22.8029993,12 23.5051125,12 Z M23.5051125,12.3586498 C22.8984322,12.3586498 22.3940014,12.5625879 21.99182,12.9704641 C21.5828221,13.3783404 21.3783231,13.8881857 21.3783231,14.5 C21.3783231,15.0977496 21.5828221,15.6005626 21.99182,16.0084388 C22.4076346,16.4233474 22.9120654,16.6308017 23.5051125,16.6308017 C24.0981595,16.6308017 24.6025903,16.4233474 25.0184049,16.0084388 C25.4205862,15.5935302 25.6216769,15.0907173 25.6216769,14.5 C25.6216769,13.895218 25.4205862,13.3853727 25.0184049,12.9704641 C24.6162236,12.5625879 24.1117928,12.3586498 23.5051125,12.3586498 Z M23.6687117,13.0864979 L23.8064644,13.0919187 C24.0270582,13.1099879 24.2026812,13.1732302 24.3333333,13.2816456 C24.4901159,13.411744 24.5685072,13.5998594 24.5685072,13.8459916 C24.5685072,14.1835443 24.4219496,14.4050633 24.1288344,14.5105485 C24.3537832,14.580872 24.4764826,14.7601969 24.4969325,15.0485232 L24.4969325,15.0485232 L24.5276074,15.4810127 L24.5391104,15.5878165 C24.5570041,15.6906646 24.5940695,15.7816456 24.6503067,15.8607595 L24.6503067,15.8607595 L24.3026585,15.8607595 L24.2503976,15.7435537 C24.2216163,15.662291 24.2049534,15.5747773 24.200409,15.4810127 L24.200409,15.4810127 L24.1799591,15.1223629 L24.1685072,15.0274262 C24.1488753,14.9092827 24.1117928,14.8248945 24.0572597,14.7742616 C23.9890934,14.7109705 23.8732106,14.6793249 23.7096115,14.6793249 L23.7096115,14.6793249 L22.8813906,14.6793249 L22.8813906,15.8607595 L22.5541922,15.8607595 L22.5541922,13.0864979 L23.6687117,13.0864979 Z M23.6687117,13.3924051 L22.8813906,13.3924051 L22.8813906,14.3628692 L23.6891616,14.3628692 C24.0436264,14.3628692 24.2208589,14.2011252 24.2208589,13.8776371 C24.2208589,13.5541491 24.0368098,13.3924051 23.6687117,13.3924051 L23.6687117,13.3924051 Z" id="path-1"></path>
    </defs>
    <g id="Page-1" stroke="none" stroke-width="1" fill="none" fill-rule="evenodd">
        <g id="Artboard" transform="translate(-113.000000, -158.000000)">
            <g id="mandhari_logo_min-white" transform="translate(113.000000, 158.000000)">
                <mask id="mask-2" fill="white">
                    <use xlink:href="#path-1"></use>
                </mask>
                <use id="Mask" fill="#FFFFFF" fill-rule="nonzero" xlink:href="#path-1"></use>
            </g>
        </g>
    </g>
</svg>