<?xml version="1.0" encoding="UTF-8"?>
<svg width="27px" height="18px" viewBox="0 0 27 18" version="1.1" xmlns="http://www.w3.org/2000/svg" xmlns:xlink="http://www.w3.org/1999/xlink">
    <!-- Generator: Sketch 64 (93537) - https://sketch.com -->
    <title>mandhari_logo_min-outline</title>
    <desc>Created with Sketch.</desc>
    <g id="Page-1" stroke="none" stroke-width="1" fill="none" fill-rule="evenodd">
        <g id="Artboard" transform="translate(-76.000000, -159.000000)" fill="#FFFFFF" fill-rule="nonzero" stroke="#000000" stroke-width="0.1">
            <g id="mandhari_logo_min-outline" transform="translate(77.000000, 159.104000)">
                <path d="M3.864,17.088 L3.864,12.072 C3.864,9.272 3.824,6.528 3.744,3.84 C4.144,5.28 4.52,6.568 4.872,7.704 L4.872,7.704 L7.824,17.088 L11.136,17.088 L14.088,7.704 C14.552,6.28 14.936,4.984 15.24,3.816 C15.144,6.136 15.096,8.888 15.096,12.072 L15.096,12.072 L15.096,17.088 L18.96,17.088 L18.96,-2.66453526e-14 L12.888,-2.66453526e-14 L10.656,7.272 C10.272,8.632 9.888,10.072 9.504,11.592 C9.024,9.8 8.632,8.384 8.328,7.344 L8.328,7.344 L6.072,-2.66453526e-14 L-1.77635684e-15,-2.66453526e-14 L-1.77635684e-15,17.088 L3.864,17.088 Z" id="Path"></path>
                <path d="M22.5051125,17 C23.2072256,17 23.8002727,16.757384 24.2842536,16.2721519 C24.7614179,15.7869198 25,15.1962025 25,14.5 C25,13.8037975 24.7614179,13.2130802 24.2842536,12.7278481 C23.8002727,12.242616 23.2072256,12 22.5051125,12 C21.8029993,12 21.2099523,12.242616 20.7259714,12.7278481 C20.2419905,13.2130802 20,13.8037975 20,14.5 C20,15.1962025 20.2419905,15.7869198 20.7259714,16.2721519 C21.2099523,16.757384 21.8029993,17 22.5051125,17 Z M22.5051125,16.6308017 C21.9120654,16.6308017 21.4076346,16.4233474 20.99182,16.0084388 C20.5828221,15.6005626 20.3783231,15.0977496 20.3783231,14.5 C20.3783231,13.8881857 20.5828221,13.3783404 20.99182,12.9704641 C21.3940014,12.5625879 21.8984322,12.3586498 22.5051125,12.3586498 C23.1117928,12.3586498 23.6162236,12.5625879 24.0184049,12.9704641 C24.4205862,13.3853727 24.6216769,13.895218 24.6216769,14.5 C24.6216769,15.0907173 24.4205862,15.5935302 24.0184049,16.0084388 C23.6025903,16.4233474 23.0981595,16.6308017 22.5051125,16.6308017 Z M21.8813906,15.8607595 L21.8813906,14.6793249 L22.7096115,14.6793249 C22.8732106,14.6793249 22.9890934,14.7109705 23.0572597,14.7742616 C23.125426,14.8375527 23.1663258,14.9535865 23.1799591,15.1223629 L23.1799591,15.1223629 L23.200409,15.4810127 C23.2072256,15.6216596 23.2413088,15.7482419 23.3026585,15.8607595 L23.3026585,15.8607595 L23.6503067,15.8607595 C23.5753238,15.7552743 23.534424,15.628692 23.5276074,15.4810127 L23.5276074,15.4810127 L23.4969325,15.0485232 C23.4764826,14.7601969 23.3537832,14.580872 23.1288344,14.5105485 C23.4219496,14.4050633 23.5685072,14.1835443 23.5685072,13.8459916 C23.5685072,13.5998594 23.4901159,13.411744 23.3333333,13.2816456 C23.1765508,13.1515471 22.9550102,13.0864979 22.6687117,13.0864979 L22.6687117,13.0864979 L21.5541922,13.0864979 L21.5541922,15.8607595 L21.8813906,15.8607595 Z M22.6891616,14.3628692 L21.8813906,14.3628692 L21.8813906,13.3924051 L22.6687117,13.3924051 C23.0368098,13.3924051 23.2208589,13.5541491 23.2208589,13.8776371 C23.2208589,14.2011252 23.0436264,14.3628692 22.6891616,14.3628692 L22.6891616,14.3628692 Z" id="®"></path>
            </g>
        </g>
    </g>
</svg>