<?xml version="1.0" standalone="no"?>
<!DOCTYPE svg PUBLIC "-//W3C//DTD SVG 20010904//EN"
 "http://www.w3.org/TR/2001/REC-SVG-20010904/DTD/svg10.dtd">
<svg version="1.0" xmlns="http://www.w3.org/2000/svg"
 width="260.000000pt" height="260.000000pt" viewBox="0 0 260.000000 260.000000"
 preserveAspectRatio="xMidYMid meet">
<metadata>
Created by potrace 1.11, written by Peter Selinger 2001-2013
</metadata>
<g transform="translate(0.000000,260.000000) scale(0.100000,-0.100000)"
fill="#000000" stroke="none">
<path d="M1515 2580 c-38 -10 -90 -27 -115 -38 -37 -16 -298 -155 -595 -317
-22 -12 -122 -65 -222 -119 l-182 -98 -1 -985 0 -984 57 32 c32 17 81 44 108
59 28 15 79 43 115 63 36 19 88 47 115 62 114 63 153 84 220 120 91 49 168 91
230 125 161 89 179 98 370 200 367 196 435 249 502 392 32 70 43 113 49 208
15 209 -74 377 -246 461 -38 19 -69 36 -69 39 0 3 23 23 51 45 104 81 168 213
170 350 3 174 -97 325 -252 381 -69 24 -220 27 -305 4z m86 -459 c24 -24 29
-38 29 -76 0 -88 -53 -146 -215 -235 -33 -18 -78 -43 -100 -55 -22 -12 -151
-84 -287 -159 -135 -75 -248 -136 -250 -136 -2 0 -2 286 1 300 1 3 18 14 39
25 20 11 57 31 82 46 25 14 77 43 115 64 39 21 150 83 248 137 210 117 210
117 265 117 35 1 49 -5 73 -28z m86 -691 c39 -23 52 -47 58 -104 10 -101 -49
-168 -245 -273 -41 -22 -92 -50 -112 -61 -39 -22 -55 -31 -333 -182 -93 -51
-194 -105 -222 -121 -29 -16 -53 -28 -54 -26 -1 1 -2 82 -3 179 l-1 177 359
198 c198 109 378 206 400 215 55 23 114 22 153 -2z"/>
</g>
</svg>
